<?xml version="1.0" encoding="UTF-8" standalone="no"?>
<!-- Generator: Adobe Illustrator 19.0.0, SVG Export Plug-In . SVG Version: 6.00 Build 0)  -->

<svg
   xmlns:dc="http://purl.org/dc/elements/1.1/"
   xmlns:cc="http://creativecommons.org/ns#"
   xmlns:rdf="http://www.w3.org/1999/02/22-rdf-syntax-ns#"
   xmlns:svg="http://www.w3.org/2000/svg"
   xmlns="http://www.w3.org/2000/svg"
   xmlns:sodipodi="http://sodipodi.sourceforge.net/DTD/sodipodi-0.dtd"
   xmlns:inkscape="http://www.inkscape.org/namespaces/inkscape"
   version="1.1"
   id="Layer_1"
   x="0px"
   y="0px"
   viewBox="0 0 400 400"
   style="enable-background:new 0 0 400 400;"
   xml:space="preserve"
   sodipodi:docname="logo.svg"
   inkscape:version="0.92.5 (2060ec1f9f, 2020-04-08)"><metadata
   id="metadata17"><rdf:RDF><cc:Work
       rdf:about=""><dc:format>image/svg+xml</dc:format><dc:type
         rdf:resource="http://purl.org/dc/dcmitype/StillImage" /></cc:Work></rdf:RDF></metadata><defs
   id="defs15" /><sodipodi:namedview
   pagecolor="#ffffff"
   bordercolor="#666666"
   borderopacity="1"
   objecttolerance="10"
   gridtolerance="10"
   guidetolerance="10"
   inkscape:pageopacity="0"
   inkscape:pageshadow="2"
   inkscape:window-width="1920"
   inkscape:window-height="1031"
   id="namedview13"
   showgrid="false"
   inkscape:zoom="0.834386"
   inkscape:cx="-119.4316"
   inkscape:cy="393.25354"
   inkscape:window-x="0"
   inkscape:window-y="25"
   inkscape:window-maximized="1"
   inkscape:current-layer="XMLID_2_" />
<style
   type="text/css"
   id="style2">
	.st0{fill:#FFFFFF;}
	.st1{fill:#7E7F7F;}
</style>

<g
   id="XMLID_2_"
   inkscape:export-xdpi="9"
   inkscape:export-ydpi="9">
	<g
   id="XMLID_11_"
   transform="translate(-1.1984817,2.3969722)"
   style="fill:#ffffff;fill-opacity:1"
   inkscape:export-xdpi="35.533356"
   inkscape:export-ydpi="35.533356">
		<path
   id="XMLID_12_"
   class="st1"
   d="m 28.6,30.5 h 75.1 V 67.8 H 69 v 262.7 h 34.7 V 368 H 28.6 Z"
   style="fill:#ffffff;fill-opacity:1"
   inkscape:connector-curvature="0" />
	</g>
	<g
   id="XMLID_4_"
   transform="translate(-1.1984817,2.3969722)"
   style="fill:#ffffff;fill-opacity:1"
   inkscape:export-xdpi="35.533356"
   inkscape:export-ydpi="35.533356">
		<path
   id="XMLID_6_"
   d="m 276.4,101.5 v 39.1 H 216.3 V 322.5 H 174 V 140.6 h -60.4 v -39.1 z"
   style="fill:#ffffff;fill-opacity:1"
   inkscape:connector-curvature="0" />
	</g>
	<g
   id="XMLID_3_"
   transform="translate(-1.1984817,2.3969722)"
   style="fill:#ffffff;fill-opacity:1"
   inkscape:export-xdpi="35.533356"
   inkscape:export-ydpi="35.533356">
		<path
   id="XMLID_5_"
   class="st1"
   d="m 365.7,368 h -75.1 v -37.3 h 34.7 V 68 H 290.6 V 30.5 h 75.1 z"
   style="fill:#ffffff;fill-opacity:1"
   inkscape:connector-curvature="0" />
	</g>
</g>
<path
   inkscape:connector-curvature="0"
   id="path97"
   style="fill:#ffffff;fill-opacity:1;stroke:none;stroke-width:6.11174631;stroke-linecap:butt;stroke-linejoin:miter;stroke-miterlimit:4;stroke-dasharray:none;stroke-opacity:1"
   d="m 287.15611,-42.199233 c -18.6624,0.25845 -50.04692,16.82626 -50.04692,16.82626 -18.05216,6.39734 -71.74594,45.48892 -76.8322,75.3154 -5.02137,29.44589 10.25975,41.56483 45.02593,44.1501 34.7661,2.58524 42.60809,-24.62116 52.01756,-57.89556 9.4094,-33.2744301 51.8942,-59.39607 41.5516,-74.05533 -2.26246,-3.20669 -6.49043,-4.41324 -11.71597,-4.34087 z m -29.1414,14.26998 a 5.536235,5.536235 0 0 1 5.53591,5.5364 5.536235,5.536235 0 0 1 -5.53591,5.53595 5.536235,5.536235 0 0 1 -5.53637,-5.53595 5.536235,5.536235 0 0 1 5.53637,-5.5364 z"
   inkscape:export-xdpi="35.533356"
   inkscape:export-ydpi="35.533356" /><path
   inkscape:connector-curvature="0"
   style="fill:none;stroke:#ffffff;stroke-width:8.97931194;stroke-linecap:round;stroke-linejoin:miter;stroke-miterlimit:4;stroke-dasharray:none;stroke-opacity:1"
   d="m 230.98787,-22.726923 c 0,0 -4.11247,-15.39528 -21.24915,-13.9153 -18.59422,1.60589 -31.48392,26.34994 -1.55792,40.4024899"
   id="path924"
   inkscape:export-xdpi="35.533356"
   inkscape:export-ydpi="35.533356" /><path
   inkscape:connector-curvature="0"
   style="fill:none;stroke:#ffffff;stroke-width:8.97931194;stroke-linecap:round;stroke-linejoin:miter;stroke-miterlimit:4;stroke-dasharray:none;stroke-opacity:1"
   d="m 252.21453,-30.656183 c 0,0 -1.56994,-7.54403 -9.82046,-11.3543 -8.25052,-3.81026 -19.46121,-1.4883 -22.47107,4.6723"
   id="path926"
   inkscape:export-xdpi="35.533356"
   inkscape:export-ydpi="35.533356" /><path
   inkscape:connector-curvature="0"
   style="fill:none;stroke:#ffffff;stroke-width:8.97931194;stroke-linecap:round;stroke-linejoin:miter;stroke-miterlimit:4;stroke-dasharray:none;stroke-opacity:1"
   d="m 160.13843,69.695147 c 0,0 -16.27222,8.77618 -24.47739,-2.59381 -8.2052,-11.36999 -0.57781,-23.44808 8.10338,-30.30452 9.49565,-7.49964 33.21294,-20.5245 25.23625,-41.64798 -7.36861,-19.51328 -28.43921,-14.60624 -34.92983,-4.99407 -5.71498,8.4634499 -3.30229,21.10427 7.63442,22.73401 10.93678,1.62969 14.15153,-8.3429301 14.15153,-8.3429301"
   id="path928"
   inkscape:export-xdpi="35.533356"
   inkscape:export-ydpi="35.533356" /></svg>